<?xml version="1.0" encoding="utf-8"?>
<!-- Generator: Adobe Illustrator 16.0.0, SVG Export Plug-In . SVG Version: 6.00 Build 0)  -->
<!DOCTYPE svg PUBLIC "-//W3C//DTD SVG 1.1//EN" "http://www.w3.org/Graphics/SVG/1.1/DTD/svg11.dtd">
<svg version="1.1" id="Layer_1" xmlns="http://www.w3.org/2000/svg" xmlns:xlink="http://www.w3.org/1999/xlink" x="0px" y="0px"
	 width="419.49px" height="433.135px" viewBox="0 0 419.49 433.135" enable-background="new 0 0 419.49 433.135"
	 xml:space="preserve">
<g id="bg">
</g>
<g id="Layer_1_1_">
	<g>
		<g>
			<polyline fill="none" stroke="#000000" stroke-width="0.9561" stroke-miterlimit="10" points="62.838,72.007 63.333,70.161 
				65.18,69.665 			"/>
			
				<line fill="none" stroke="#000000" stroke-width="0.9561" stroke-miterlimit="10" stroke-dasharray="3.8346,3.8346,3.8346,3.8346" x1="68.885" y1="68.673" x2="81.848" y2="65.199"/>
			
				<line fill="none" stroke="#000000" stroke-width="0.9561" stroke-miterlimit="10" stroke-dasharray="3.8346,3.8346,3.8346,3.8346,3.8346,3.8346" x1="83.7" y1="64.703" x2="259.635" y2="17.559"/>
			<polyline fill="none" stroke="#000000" stroke-width="0.9561" stroke-miterlimit="10" points="261.488,17.062 263.334,16.567 
				264.687,17.919 			"/>
			
				<line fill="none" stroke="#000000" stroke-width="0.9561" stroke-miterlimit="10" stroke-dasharray="3.8346,3.8346,3.8346,3.8346" x1="267.397" y1="20.63" x2="276.888" y2="30.121"/>
			
				<line fill="none" stroke="#000000" stroke-width="0.9561" stroke-miterlimit="10" stroke-dasharray="3.8346,3.8346,3.8346,3.8346,3.8346,3.8346" x1="278.243" y1="31.478" x2="407.038" y2="160.274"/>
			<polyline fill="none" stroke="#000000" stroke-width="0.9561" stroke-miterlimit="10" points="408.394,161.629 409.745,162.981 
				409.251,164.828 			"/>
			
				<line fill="none" stroke="#000000" stroke-width="0.9561" stroke-miterlimit="10" stroke-dasharray="3.8345,3.8345,3.8345,3.8345" x1="408.257" y1="168.532" x2="404.785" y2="181.495"/>
			
				<line fill="none" stroke="#000000" stroke-width="0.9561" stroke-miterlimit="10" stroke-dasharray="3.8345,3.8345,3.8345,3.8345,3.8345,3.8345" x1="404.287" y1="183.347" x2="357.146" y2="359.276"/>
			<polyline fill="none" stroke="#000000" stroke-width="0.9561" stroke-miterlimit="10" points="356.651,361.129 356.155,362.976 
				354.31,363.471 			"/>
			
				<line fill="none" stroke="#000000" stroke-width="0.9561" stroke-miterlimit="10" stroke-dasharray="3.8346,3.8346,3.8346,3.8346" x1="350.605" y1="364.463" x2="337.642" y2="367.938"/>
			
				<line fill="none" stroke="#000000" stroke-width="0.9561" stroke-miterlimit="10" stroke-dasharray="3.8346,3.8346,3.8346,3.8346,3.8346,3.8346" x1="335.79" y1="368.433" x2="159.854" y2="415.577"/>
			<polyline fill="none" stroke="#000000" stroke-width="0.9561" stroke-miterlimit="10" points="158.002,416.073 156.155,416.568 
				154.803,415.217 			"/>
			
				<line fill="none" stroke="#000000" stroke-width="0.9561" stroke-miterlimit="10" stroke-dasharray="3.8346,3.8346,3.8346,3.8346" x1="152.091" y1="412.505" x2="142.602" y2="403.015"/>
			
				<line fill="none" stroke="#000000" stroke-width="0.9561" stroke-miterlimit="10" stroke-dasharray="3.8346,3.8346,3.8346,3.8346,3.8346,3.8346" x1="141.246" y1="401.659" x2="12.453" y2="272.862"/>
			<polyline fill="none" stroke="#000000" stroke-width="0.9561" stroke-miterlimit="10" points="11.097,271.507 9.745,270.154 
				10.24,268.308 			"/>
			
				<line fill="none" stroke="#000000" stroke-width="0.9561" stroke-miterlimit="10" stroke-dasharray="3.8345,3.8345,3.8345,3.8345" x1="11.232" y1="264.604" x2="14.706" y2="251.641"/>
			
				<line fill="none" stroke="#000000" stroke-width="0.9561" stroke-miterlimit="10" stroke-dasharray="3.8345,3.8345,3.8345,3.8345,3.8345,3.8345" x1="15.202" y1="249.787" x2="62.342" y2="73.858"/>
		</g>
	</g>
	<polygon fill="none" stroke="#000000" stroke-width="0.7171" stroke-miterlimit="10" points="9.745,162.98 156.156,16.566 
		356.156,70.16 409.745,270.154 263.335,416.567 63.333,362.975 	"/>
	<g>
		<path fill="#FFFFFF" d="M209.745,9.511L30.429,113.042v207.049l179.316,103.531l179.315-103.531V113.042L209.745,9.511z
			 M220.407,118.632h10.617v45.494h-10.617V118.632z M172.261,118.632h10.617v19.016h18.485v-19.016h10.616v45.494h-10.616v-19.234
			h-18.485v19.234h-10.617V118.632z M191.15,196.208c-0.145-0.467-0.364-0.982-0.656-1.544c-0.084-0.167-0.125-0.271-0.125-0.312
			c0-0.104,0.062-0.188,0.187-0.25l0.624-0.313c0.342,0.604,0.583,1.203,0.725,1.795c0.141,0.594,0.212,1.192,0.212,1.795
			c0,0.708-0.094,1.405-0.277,2.092c-0.184,0.688-0.434,1.353-0.75,1.998c-0.314,0.647-0.681,1.259-1.096,1.844
			c-0.418,0.582-0.855,1.135-1.312,1.654l-0.125-0.125c-0.042-0.042-0.062-0.094-0.062-0.156c0-0.02,0.02-0.073,0.062-0.156
			c0.916-1.25,1.614-2.404,2.092-3.466c0.479-1.062,0.718-2.112,0.718-3.153C191.369,197.245,191.297,196.678,191.15,196.208z
			 M176.008,195.35v43.716h-0.75V195.35H176.008z M157.554,309.663c-1.124,0.813-2.295,1.52-3.513,2.123
			c-1.217,0.604-2.519,1.108-3.903,1.515c-1.384,0.406-2.868,0.708-4.45,0.905c-1.582,0.198-3.299,0.297-5.152,0.297
			c-3.247,0-6.224-0.558-8.93-1.671c-2.707-1.113-5.039-2.674-6.995-4.683c-1.958-2.009-3.481-4.418-4.574-7.229
			c-1.093-2.81-1.639-5.901-1.639-9.272c0-3.413,0.536-6.526,1.608-9.337c1.072-2.81,2.602-5.22,4.591-7.229
			c1.987-2.009,4.392-3.565,7.212-4.669c2.821-1.102,5.979-1.653,9.477-1.653c1.77,0,3.413,0.13,4.933,0.39
			c1.52,0.26,2.93,0.635,4.231,1.125c1.301,0.489,2.503,1.083,3.606,1.778c1.102,0.698,2.133,1.484,3.091,2.358l-1.718,2.747
			c-0.354,0.563-0.812,0.844-1.374,0.844c-0.333,0-0.697-0.113-1.094-0.344c-0.52-0.291-1.103-0.645-1.748-1.061
			c-0.646-0.417-1.432-0.816-2.357-1.202c-0.928-0.385-2.019-0.714-3.279-0.984c-1.259-0.269-2.752-0.405-4.481-0.405
			c-2.519,0-4.798,0.412-6.837,1.234c-2.04,0.821-3.778,1.998-5.215,3.526c-1.436,1.53-2.539,3.384-3.31,5.559
			c-0.771,2.175-1.155,4.616-1.155,7.321c0,2.831,0.401,5.355,1.203,7.571c0.802,2.218,1.93,4.097,3.388,5.638
			c1.456,1.54,3.185,2.717,5.184,3.527c1.998,0.813,4.204,1.218,6.619,1.218c1.208,0,2.315-0.058,3.326-0.172
			c1.01-0.114,1.962-0.287,2.857-0.515c0.895-0.229,1.737-0.505,2.53-0.828c0.791-0.322,1.582-0.691,2.373-1.108v-9.867h-6.933
			c-0.396,0-0.713-0.112-0.952-0.343c-0.239-0.229-0.358-0.51-0.358-0.843v-3.436h13.738L157.554,309.663L157.554,309.663z
			 M198.988,314.088c-0.541,0-0.978-0.205-1.311-0.475c-0.333-0.271-0.583-0.683-0.75-1.099l-4.184-10.855h-20.078l-4.184,10.878
			c-0.145,0.373-0.396,0.78-0.75,1.071c-0.353,0.293-0.79,0.48-1.31,0.48h-4.684l17.892-44.938h6.151l17.892,44.938L198.988,314.088
			L198.988,314.088z M204.42,197.286v41.778h-0.624v-43.715h0.25c0.187,0,0.333,0.084,0.437,0.25l19.858,33.442
			c0.063,0.104,0.122,0.203,0.172,0.296c0.054,0.095,0.11,0.216,0.173,0.359c0.063-0.144,0.121-0.265,0.172-0.359
			c0.052-0.093,0.109-0.191,0.173-0.296l19.233-33.442c0.104-0.167,0.25-0.25,0.438-0.25h0.25v43.715h-0.624v-41.778
			c0-0.103,0-0.208,0-0.313c0-0.104,0.011-0.208,0.031-0.312l-19.142,33.348c-0.146,0.208-0.292,0.312-0.437,0.312h-0.187
			c-0.146,0-0.292-0.104-0.438-0.312l-19.766-33.318c0.02,0.104,0.031,0.204,0.031,0.297
			C204.422,197.083,204.42,197.183,204.42,197.286z M245.605,314.003h-3.061c-0.479,0-0.879-0.083-1.201-0.25
			c-0.323-0.167-0.64-0.447-0.953-0.844l-25.884-33.69c0.041,0.521,0.072,1.03,0.094,1.53c0.021,0.5,0.031,0.958,0.031,1.373v31.883
			h-5.309v-44.746h3.123c0.541,0,0.941,0.067,1.202,0.203c0.262,0.137,0.557,0.412,0.891,0.827l25.916,33.723
			c-0.063-0.542-0.104-1.066-0.124-1.577c-0.021-0.51-0.031-1.004-0.031-1.483v-31.692h5.308L245.605,314.003L245.605,314.003z
			 M248.072,163.174c-0.334,1.175-0.827,2.357-1.483,3.544c-0.656,1.186-1.474,2.352-2.451,3.497
			c-0.979,1.145-2.103,2.186-3.372,3.123l-1.687-1.498c-0.228-0.229-0.4-0.443-0.514-0.64c-0.115-0.199-0.173-0.443-0.173-0.734
			c0-0.209,0.072-0.432,0.22-0.671c0.145-0.24,0.321-0.453,0.53-0.64c0.25-0.251,0.542-0.552,0.874-0.906
			c0.333-0.354,0.667-0.749,1-1.187c0.332-0.437,0.64-0.916,0.921-1.436c0.281-0.521,0.495-1.073,0.641-1.654
			c-0.729-0.062-1.385-0.239-1.968-0.532c-0.582-0.292-1.077-0.676-1.484-1.155c-0.405-0.479-0.724-1.025-0.95-1.64
			c-0.23-0.614-0.345-1.285-0.345-2.014c0-0.665,0.126-1.286,0.376-1.857c0.25-0.573,0.609-1.071,1.077-1.498
			c0.468-0.426,1.019-0.766,1.655-1.015c0.634-0.251,1.346-0.375,2.138-0.375c0.937,0,1.748,0.161,2.436,0.484
			c0.687,0.323,1.258,0.76,1.718,1.312c0.457,0.551,0.796,1.186,1.016,1.905c0.219,0.718,0.327,1.472,0.327,2.263
			C248.573,160.889,248.405,161.997,248.072,163.174z M263.715,314.003h-6.058v-44.744h6.058V314.003z M300.093,305.932
			c-0.666,1.718-1.64,3.21-2.92,4.481c-1.281,1.27-2.852,2.269-4.716,2.998c-1.863,0.728-3.98,1.093-6.354,1.093
			c-2.893,0-5.531-0.525-7.914-1.576c-2.383-1.052-4.419-2.471-6.104-4.262l1.748-2.874c0.167-0.228,0.37-0.42,0.609-0.577
			c0.239-0.156,0.504-0.233,0.796-0.233c0.438,0,0.937,0.233,1.499,0.702c0.562,0.468,1.263,0.983,2.108,1.544
			c0.842,0.564,1.861,1.079,3.06,1.547c1.196,0.469,2.659,0.702,4.387,0.702c1.437,0,2.716-0.197,3.841-0.593
			c1.124-0.396,2.076-0.953,2.855-1.671c0.782-0.718,1.38-1.576,1.797-2.576c0.416-0.999,0.624-2.112,0.624-3.341
			c0-1.352-0.307-2.461-0.921-3.325c-0.616-0.863-1.421-1.587-2.42-2.17c-0.999-0.584-2.139-1.077-3.419-1.484
			c-1.279-0.406-2.593-0.822-3.934-1.249c-1.343-0.426-2.654-0.921-3.935-1.483c-1.28-0.562-2.42-1.29-3.42-2.186
			c-0.999-0.896-1.807-2.014-2.419-3.356c-0.613-1.344-0.92-3.003-0.92-4.98c0-1.581,0.306-3.112,0.92-4.592
			c0.613-1.477,1.504-2.788,2.671-3.933c1.165-1.145,2.606-2.062,4.323-2.748c1.718-0.688,3.689-1.03,5.917-1.03
			c2.498,0,4.776,0.395,6.837,1.187s3.861,1.935,5.402,3.435l-1.469,2.873c-0.187,0.313-0.385,0.546-0.593,0.702
			c-0.207,0.155-0.479,0.233-0.812,0.233c-0.354,0-0.766-0.177-1.234-0.531c-0.468-0.354-1.061-0.744-1.778-1.171
			s-1.582-0.816-2.592-1.171c-1.01-0.355-2.233-0.531-3.668-0.531c-1.354,0-2.551,0.182-3.592,0.546
			c-1.042,0.365-1.911,0.858-2.608,1.483s-1.223,1.358-1.576,2.202c-0.354,0.843-0.53,1.753-0.53,2.73
			c0,1.25,0.307,2.286,0.921,3.107c0.613,0.823,1.425,1.525,2.436,2.108c1.01,0.581,2.154,1.088,3.435,1.515
			c1.281,0.426,2.592,0.868,3.936,1.326c1.341,0.459,2.651,0.974,3.933,1.546c1.28,0.572,2.426,1.295,3.436,2.17
			c1.01,0.874,1.82,1.947,2.436,3.217c0.613,1.27,0.921,2.831,0.921,4.684C301.092,302.378,300.758,304.214,300.093,305.932z"/>
		<path fill="#FFFFFF" d="M182.688,275.027c-0.228,0.854-0.453,1.694-0.67,2.414c-0.218,0.719-0.433,1.458-0.64,1.999l-7.026,18.394
			h16.706l-7.026-18.396C183.574,278.313,183.125,276.715,182.688,275.027z"/>
	</g>
</g>
</svg>
